<svg width="213" height="250" viewBox="0 0 213 250" fill="none" xmlns="http://www.w3.org/2000/svg">
<path d="M176.5 27.2812V94.1624C176.5 99.6187 170.97 104.625 164.18 105.3L162.01 105.525C150.53 106.762 134.36 110.587 121.34 114.975C116.79 116.494 111.75 113.737 111.75 109.744V31.5C111.75 29.4187 113.22 27.5062 115.53 26.4937C128.34 20.925 147.73 15.975 160.89 15.075H161.31C169.71 15.075 176.5 20.5312 176.5 27.2812Z" fill="white"/>
<path d="M97.4697 26.4937C84.6597 20.925 65.2697 15.975 52.1097 15.075H51.6197C43.2197 15.075 36.4297 20.5312 36.4297 27.2812V94.1624C36.4297 99.6187 41.9597 104.625 48.7497 105.3L50.9197 105.525C62.3997 106.762 78.5697 110.587 91.5897 114.975C96.1397 116.494 101.18 113.737 101.18 109.744V31.5C101.18 29.3625 99.7797 27.5062 97.4697 26.4937ZM57.4997 43.5374H73.2497C76.1197 43.5374 78.4997 45.4499 78.4997 47.7562C78.4997 50.1187 76.1197 51.9749 73.2497 51.9749H57.4997C54.6297 51.9749 52.2497 50.1187 52.2497 47.7562C52.2497 45.4499 54.6297 43.5374 57.4997 43.5374ZM78.4997 68.8499H57.4997C54.6297 68.8499 52.2497 66.9937 52.2497 64.6312C52.2497 62.3249 54.6297 60.4124 57.4997 60.4124H78.4997C81.3697 60.4124 83.7497 62.3249 83.7497 64.6312C83.7497 66.9937 81.3697 68.8499 78.4997 68.8499Z" fill="white"/>
<path d="M42.5176 185.415C40.625 185.415 38.9704 185.138 37.5537 184.585C36.1481 184.021 35.0413 183.218 34.2334 182.178C33.4255 181.126 32.9717 179.865 32.8721 178.393L32.8555 178.127H37.5869L37.6201 178.31C37.7308 178.929 38.0075 179.466 38.4502 179.92C38.904 180.363 39.4906 180.711 40.21 180.966C40.9294 181.209 41.7428 181.331 42.6504 181.331C43.5801 181.331 44.377 181.209 45.041 180.966C45.7161 180.711 46.2363 180.357 46.6016 179.903C46.9779 179.438 47.166 178.902 47.166 178.293V178.276C47.166 177.468 46.8451 176.838 46.2031 176.384C45.5723 175.919 44.5098 175.532 43.0156 175.222L40.4922 174.724C38.1348 174.248 36.3584 173.445 35.1631 172.316C33.9678 171.188 33.3701 169.721 33.3701 167.917V167.9C33.3701 166.439 33.763 165.167 34.5488 164.082C35.3346 162.986 36.4137 162.14 37.7861 161.542C39.1585 160.933 40.7301 160.629 42.501 160.629C44.3493 160.629 45.943 160.917 47.2822 161.492C48.6325 162.068 49.6839 162.881 50.4365 163.933C51.1891 164.984 51.6042 166.207 51.6816 167.602L51.6982 167.917H46.9668L46.9502 167.718C46.8617 167.087 46.6237 166.55 46.2363 166.107C45.849 165.654 45.3343 165.305 44.6924 165.062C44.0615 164.818 43.3311 164.696 42.501 164.696C41.6488 164.696 40.9128 164.824 40.293 165.078C39.6732 165.322 39.1973 165.659 38.8652 166.091C38.5443 166.522 38.3838 167.026 38.3838 167.602V167.618C38.3838 168.371 38.7048 168.979 39.3467 169.444C39.9886 169.909 40.9958 170.28 42.3682 170.557L44.9082 171.071C46.5794 171.403 47.9518 171.863 49.0254 172.449C50.099 173.036 50.8903 173.777 51.3994 174.674C51.9196 175.559 52.1797 176.627 52.1797 177.878V177.895C52.1797 179.433 51.7923 180.767 51.0176 181.896C50.2539 183.013 49.1471 183.882 47.6973 184.502C46.2585 185.111 44.5319 185.415 42.5176 185.415ZM61.9082 185.365C59.9382 185.365 58.4772 184.95 57.5254 184.12C56.5736 183.29 56.0977 181.923 56.0977 180.02V170.855H53.624V167.203H56.0977V162.854H60.9951V167.203H64.249V170.855H60.9951V179.488C60.9951 180.318 61.1777 180.899 61.543 181.231C61.9193 181.552 62.4727 181.713 63.2031 181.713C63.4245 181.713 63.6182 181.707 63.7842 181.696C63.9502 181.674 64.1051 181.652 64.249 181.63V185.183C63.9834 185.227 63.6514 185.266 63.2529 185.299C62.8656 185.343 62.4173 185.365 61.9082 185.365ZM72.9814 185.365C71.6755 185.365 70.5632 185.1 69.6445 184.568C68.737 184.026 68.0397 183.257 67.5527 182.261C67.0768 181.265 66.8389 180.075 66.8389 178.691V167.203H71.6865V177.679C71.6865 178.841 71.9577 179.743 72.5 180.385C73.0534 181.027 73.8724 181.348 74.957 181.348C75.4993 181.348 75.9863 181.254 76.418 181.065C76.8607 180.877 77.237 180.612 77.5469 180.269C77.8568 179.914 78.0947 179.499 78.2607 179.023C78.4268 178.536 78.5098 178.005 78.5098 177.43V167.203H83.3574V185H78.5098V182.062H78.4102C78.1003 182.737 77.6908 183.323 77.1816 183.821C76.6836 184.319 76.0804 184.701 75.3721 184.967C74.6748 185.232 73.8779 185.365 72.9814 185.365ZM93.1025 185.365C91.6084 185.365 90.319 184.994 89.2344 184.253C88.1497 183.511 87.3141 182.449 86.7275 181.065C86.152 179.682 85.8643 178.027 85.8643 176.102V176.085C85.8643 174.148 86.1576 172.493 86.7441 171.121C87.3307 169.738 88.1608 168.681 89.2344 167.95C90.319 167.209 91.6084 166.838 93.1025 166.838C93.9437 166.838 94.7184 166.976 95.4268 167.253C96.1351 167.53 96.7549 167.928 97.2861 168.448C97.8285 168.957 98.2601 169.572 98.5811 170.291H98.6807V161.044H103.528V185H98.6807V181.962H98.5811C98.2712 182.67 97.8506 183.279 97.3193 183.788C96.7881 184.286 96.1683 184.674 95.46 184.95C94.7516 185.227 93.9658 185.365 93.1025 185.365ZM94.7295 181.348C95.5153 181.348 96.207 181.137 96.8047 180.717C97.4023 180.285 97.8672 179.676 98.1992 178.891C98.5312 178.105 98.6973 177.175 98.6973 176.102V176.085C98.6973 175.011 98.5257 174.087 98.1826 173.312C97.8506 172.527 97.3857 171.924 96.7881 171.503C96.2015 171.071 95.5153 170.855 94.7295 170.855C93.9215 170.855 93.2243 171.066 92.6377 171.486C92.0511 171.907 91.5973 172.51 91.2764 173.296C90.9554 174.071 90.7949 175 90.7949 176.085V176.102C90.7949 177.175 90.9499 178.105 91.2598 178.891C91.5807 179.676 92.0345 180.285 92.6211 180.717C93.2188 181.137 93.9215 181.348 94.7295 181.348ZM109.555 190.86C109.079 190.86 108.619 190.838 108.177 190.794C107.734 190.75 107.369 190.7 107.081 190.645V187.042C107.258 187.075 107.485 187.108 107.762 187.142C108.038 187.186 108.354 187.208 108.708 187.208C109.438 187.208 110.014 187.086 110.435 186.843C110.855 186.599 111.171 186.179 111.381 185.581L111.597 185L105.305 167.203H110.634L114.651 182.078L114.004 181.115H114.917L114.27 182.078L118.287 167.203H123.4L117.291 185.315C116.826 186.71 116.24 187.811 115.531 188.619C114.834 189.427 113.993 190.003 113.008 190.346C112.023 190.689 110.872 190.86 109.555 190.86ZM125.509 185V161.044H135.403C137.196 161.044 138.729 161.348 140.002 161.957C141.286 162.566 142.265 163.446 142.94 164.597C143.627 165.737 143.97 167.109 143.97 168.714V168.747C143.97 170.319 143.577 171.719 142.791 172.947C142.016 174.176 140.965 175.05 139.637 175.57L144.684 185H139.006L134.54 176.317C134.507 176.317 134.468 176.317 134.424 176.317C134.38 176.317 134.335 176.317 134.291 176.317H130.522V185H125.509ZM130.522 172.516H134.855C136.106 172.516 137.08 172.184 137.777 171.52C138.486 170.844 138.84 169.92 138.84 168.747V168.714C138.84 167.563 138.475 166.65 137.744 165.975C137.014 165.299 136.029 164.962 134.789 164.962H130.522V172.516ZM154.811 185.365C152.995 185.365 151.435 184.994 150.129 184.253C148.823 183.5 147.816 182.432 147.107 181.049C146.41 179.665 146.062 178.027 146.062 176.135V176.118C146.062 174.226 146.41 172.588 147.107 171.204C147.816 169.81 148.806 168.736 150.079 167.983C151.363 167.22 152.874 166.838 154.611 166.838C156.349 166.838 157.849 167.209 159.11 167.95C160.383 168.681 161.363 169.715 162.049 171.055C162.746 172.394 163.095 173.96 163.095 175.753V177.247H148.436V174.192H160.804L158.496 177.048V175.188C158.496 174.148 158.336 173.279 158.015 172.582C157.694 171.874 157.245 171.342 156.67 170.988C156.105 170.634 155.447 170.457 154.694 170.457C153.942 170.457 153.272 170.64 152.686 171.005C152.11 171.37 151.656 171.907 151.324 172.615C151.003 173.312 150.843 174.17 150.843 175.188V177.064C150.843 178.049 151.003 178.891 151.324 179.588C151.656 180.285 152.127 180.822 152.735 181.198C153.344 181.563 154.069 181.746 154.91 181.746C155.574 181.746 156.15 181.641 156.637 181.431C157.124 181.22 157.522 180.955 157.832 180.634C158.142 180.313 158.352 179.986 158.463 179.654L158.496 179.555H162.945L162.896 179.737C162.763 180.39 162.503 181.049 162.115 181.713C161.728 182.377 161.202 182.986 160.538 183.539C159.885 184.092 159.083 184.535 158.131 184.867C157.19 185.199 156.083 185.365 154.811 185.365ZM165.27 185V182.244L174.218 170.938V170.855H165.402V167.203H179.763V170.274L171.346 181.248V181.348H179.962V185H165.27Z" fill="white"/>
<path d="M2 226V214.727H6.55469C7.36198 214.727 8.05469 214.87 8.63281 215.156C9.21094 215.443 9.65365 215.846 9.96094 216.367C10.2682 216.888 10.4219 217.508 10.4219 218.227V218.242C10.4219 218.987 10.2344 219.648 9.85938 220.227C9.48958 220.799 8.97135 221.206 8.30469 221.445L10.7656 226H8.46875L6.25 221.758C6.23958 221.758 6.22396 221.758 6.20312 221.758C6.18229 221.758 6.16406 221.758 6.14844 221.758H4.01562V226H2ZM4.01562 220.211H6.34375C6.98438 220.211 7.48177 220.042 7.83594 219.703C8.1901 219.365 8.36719 218.893 8.36719 218.289V218.273C8.36719 217.685 8.18229 217.219 7.8125 216.875C7.44792 216.526 6.94531 216.352 6.30469 216.352H4.01562V220.211ZM16.0625 226.172C15.2135 226.172 14.4844 225.992 13.875 225.633C13.2708 225.273 12.8047 224.763 12.4766 224.102C12.1484 223.44 11.9844 222.656 11.9844 221.75V221.742C11.9844 220.846 12.1458 220.065 12.4688 219.398C12.7969 218.732 13.2604 218.216 13.8594 217.852C14.4583 217.482 15.1615 217.297 15.9688 217.297C16.7812 217.297 17.4792 217.477 18.0625 217.836C18.651 218.19 19.1042 218.688 19.4219 219.328C19.7396 219.969 19.8984 220.719 19.8984 221.578V222.219H12.9609V220.914H18.9453L18.0234 222.133V221.359C18.0234 220.792 17.9375 220.32 17.7656 219.945C17.5938 219.57 17.3542 219.289 17.0469 219.102C16.7448 218.914 16.3932 218.82 15.9922 218.82C15.5911 218.82 15.2344 218.919 14.9219 219.117C14.6146 219.31 14.3698 219.596 14.1875 219.977C14.0104 220.352 13.9219 220.812 13.9219 221.359V222.141C13.9219 222.667 14.0104 223.117 14.1875 223.492C14.3646 223.862 14.6146 224.148 14.9375 224.352C15.2656 224.549 15.6536 224.648 16.1016 224.648C16.4505 224.648 16.75 224.599 17 224.5C17.2552 224.396 17.4609 224.273 17.6172 224.133C17.7734 223.987 17.8828 223.849 17.9453 223.719L17.9688 223.664H19.8125L19.7969 223.734C19.7292 224.01 19.6042 224.292 19.4219 224.578C19.2448 224.859 19.0026 225.122 18.6953 225.367C18.3932 225.607 18.0234 225.802 17.5859 225.953C17.1484 226.099 16.6406 226.172 16.0625 226.172ZM25.0703 226.172C24.3464 226.172 23.7214 226.07 23.1953 225.867C22.6745 225.659 22.263 225.372 21.9609 225.008C21.6589 224.638 21.4792 224.211 21.4219 223.727V223.711H23.3516L23.3594 223.727C23.4635 224.023 23.6589 224.266 23.9453 224.453C24.2318 224.641 24.6172 224.734 25.1016 224.734C25.4245 224.734 25.7083 224.69 25.9531 224.602C26.1979 224.508 26.3906 224.38 26.5312 224.219C26.6719 224.057 26.7422 223.87 26.7422 223.656V223.641C26.7422 223.391 26.6406 223.182 26.4375 223.016C26.2344 222.844 25.8984 222.706 25.4297 222.602L24.0469 222.289C23.5052 222.169 23.0573 222.003 22.7031 221.789C22.349 221.576 22.0833 221.312 21.9062 221C21.7344 220.688 21.6484 220.323 21.6484 219.906V219.898C21.6484 219.383 21.7917 218.93 22.0781 218.539C22.3698 218.148 22.7734 217.844 23.2891 217.625C23.8047 217.406 24.3984 217.297 25.0703 217.297C25.763 217.297 26.3594 217.401 26.8594 217.609C27.3594 217.818 27.75 218.104 28.0312 218.469C28.3125 218.833 28.474 219.247 28.5156 219.711V219.727H26.6875L26.6797 219.703C26.6068 219.432 26.4323 219.203 26.1562 219.016C25.8854 218.823 25.5208 218.727 25.0625 218.727C24.776 218.727 24.5182 218.771 24.2891 218.859C24.0651 218.948 23.888 219.073 23.7578 219.234C23.6328 219.391 23.5703 219.576 23.5703 219.789V219.797C23.5703 219.964 23.612 220.109 23.6953 220.234C23.7839 220.359 23.9219 220.469 24.1094 220.562C24.2969 220.656 24.5443 220.74 24.8516 220.812L26.2344 221.117C27.0729 221.305 27.6927 221.583 28.0938 221.953C28.4948 222.323 28.6953 222.82 28.6953 223.445V223.461C28.6953 224.003 28.5391 224.477 28.2266 224.883C27.9141 225.289 27.4844 225.607 26.9375 225.836C26.3906 226.06 25.7682 226.172 25.0703 226.172ZM34.3125 226.172C33.4635 226.172 32.7344 225.992 32.125 225.633C31.5208 225.273 31.0547 224.763 30.7266 224.102C30.3984 223.44 30.2344 222.656 30.2344 221.75V221.742C30.2344 220.846 30.3958 220.065 30.7188 219.398C31.0469 218.732 31.5104 218.216 32.1094 217.852C32.7083 217.482 33.4115 217.297 34.2188 217.297C35.0312 217.297 35.7292 217.477 36.3125 217.836C36.901 218.19 37.3542 218.688 37.6719 219.328C37.9896 219.969 38.1484 220.719 38.1484 221.578V222.219H31.2109V220.914H37.1953L36.2734 222.133V221.359C36.2734 220.792 36.1875 220.32 36.0156 219.945C35.8438 219.57 35.6042 219.289 35.2969 219.102C34.9948 218.914 34.6432 218.82 34.2422 218.82C33.8411 218.82 33.4844 218.919 33.1719 219.117C32.8646 219.31 32.6198 219.596 32.4375 219.977C32.2604 220.352 32.1719 220.812 32.1719 221.359V222.141C32.1719 222.667 32.2604 223.117 32.4375 223.492C32.6146 223.862 32.8646 224.148 33.1875 224.352C33.5156 224.549 33.9036 224.648 34.3516 224.648C34.7005 224.648 35 224.599 35.25 224.5C35.5052 224.396 35.7109 224.273 35.8672 224.133C36.0234 223.987 36.1328 223.849 36.1953 223.719L36.2188 223.664H38.0625L38.0469 223.734C37.9792 224.01 37.8542 224.292 37.6719 224.578C37.4948 224.859 37.2526 225.122 36.9453 225.367C36.6432 225.607 36.2734 225.802 35.8359 225.953C35.3984 226.099 34.8906 226.172 34.3125 226.172ZM40.0938 226V217.461H42.0391V218.773H42.1719C42.3177 218.315 42.5781 217.958 42.9531 217.703C43.3333 217.448 43.8047 217.32 44.3672 217.32C44.513 217.32 44.6562 217.331 44.7969 217.352C44.9427 217.367 45.0625 217.388 45.1562 217.414V219.156C45 219.12 44.8411 219.094 44.6797 219.078C44.5234 219.057 44.3594 219.047 44.1875 219.047C43.7552 219.047 43.3776 219.128 43.0547 219.289C42.7318 219.451 42.4818 219.682 42.3047 219.984C42.1276 220.281 42.0391 220.633 42.0391 221.039V226H40.0938ZM49.1562 226L46.1172 217.461H48.1953L50.1641 224.102H50.3047L52.2656 217.461H54.3125L51.2812 226H49.1562ZM59.2656 226.172C58.4167 226.172 57.6875 225.992 57.0781 225.633C56.474 225.273 56.0078 224.763 55.6797 224.102C55.3516 223.44 55.1875 222.656 55.1875 221.75V221.742C55.1875 220.846 55.349 220.065 55.6719 219.398C56 218.732 56.4635 218.216 57.0625 217.852C57.6615 217.482 58.3646 217.297 59.1719 217.297C59.9844 217.297 60.6823 217.477 61.2656 217.836C61.8542 218.19 62.3073 218.688 62.625 219.328C62.9427 219.969 63.1016 220.719 63.1016 221.578V222.219H56.1641V220.914H62.1484L61.2266 222.133V221.359C61.2266 220.792 61.1406 220.32 60.9688 219.945C60.7969 219.57 60.5573 219.289 60.25 219.102C59.9479 218.914 59.5964 218.82 59.1953 218.82C58.7943 218.82 58.4375 218.919 58.125 219.117C57.8177 219.31 57.5729 219.596 57.3906 219.977C57.2135 220.352 57.125 220.812 57.125 221.359V222.141C57.125 222.667 57.2135 223.117 57.3906 223.492C57.5677 223.862 57.8177 224.148 58.1406 224.352C58.4688 224.549 58.8568 224.648 59.3047 224.648C59.6536 224.648 59.9531 224.599 60.2031 224.5C60.4583 224.396 60.6641 224.273 60.8203 224.133C60.9766 223.987 61.0859 223.849 61.1484 223.719L61.1719 223.664H63.0156L63 223.734C62.9323 224.01 62.8073 224.292 62.625 224.578C62.4479 224.859 62.2057 225.122 61.8984 225.367C61.5964 225.607 61.2266 225.802 60.7891 225.953C60.3516 226.099 59.8438 226.172 59.2656 226.172ZM70.2266 229C70.1068 229 69.9818 228.997 69.8516 228.992C69.7266 228.987 69.6042 228.979 69.4844 228.969V227.477C69.5625 227.487 69.6536 227.492 69.7578 227.492C69.862 227.497 69.9635 227.5 70.0625 227.5C70.4635 227.5 70.7839 227.411 71.0234 227.234C71.2682 227.062 71.4427 226.784 71.5469 226.398L71.6484 226.008L68.5938 217.461H70.7188L72.9688 225.023L72.4375 224.133H73.1094L72.5938 225.023L74.8438 217.461H76.8906L73.8281 226.188C73.5833 226.896 73.3021 227.456 72.9844 227.867C72.6667 228.279 72.2839 228.57 71.8359 228.742C71.3932 228.914 70.8568 229 70.2266 229ZM81.8906 226.172C81.0417 226.172 80.3099 225.995 79.6953 225.641C79.0807 225.281 78.6068 224.771 78.2734 224.109C77.9453 223.448 77.7812 222.656 77.7812 221.734V221.719C77.7812 220.807 77.9479 220.021 78.2812 219.359C78.6146 218.693 79.0859 218.182 79.6953 217.828C80.3099 217.474 81.0417 217.297 81.8906 217.297C82.7396 217.297 83.4688 217.474 84.0781 217.828C84.6927 218.182 85.1667 218.69 85.5 219.352C85.8333 220.013 86 220.802 86 221.719V221.734C86 222.656 85.8333 223.448 85.5 224.109C85.1719 224.771 84.7005 225.281 84.0859 225.641C83.4766 225.995 82.7448 226.172 81.8906 226.172ZM81.8906 224.594C82.3385 224.594 82.7188 224.482 83.0312 224.258C83.349 224.029 83.5911 223.703 83.7578 223.281C83.9245 222.854 84.0078 222.341 84.0078 221.742V221.727C84.0078 221.122 83.9245 220.609 83.7578 220.188C83.5911 219.76 83.349 219.435 83.0312 219.211C82.7188 218.982 82.3385 218.867 81.8906 218.867C81.4427 218.867 81.0599 218.982 80.7422 219.211C80.4245 219.435 80.1823 219.76 80.0156 220.188C79.849 220.609 79.7656 221.122 79.7656 221.727V221.742C79.7656 222.341 79.849 222.854 80.0156 223.281C80.1823 223.708 80.4219 224.034 80.7344 224.258C81.0521 224.482 81.4375 224.594 81.8906 224.594ZM90.7812 226.172C90.1458 226.172 89.612 226.049 89.1797 225.805C88.7474 225.555 88.4219 225.193 88.2031 224.719C87.9844 224.24 87.875 223.661 87.875 222.984V217.461H89.8203V222.539C89.8203 223.201 89.9505 223.698 90.2109 224.031C90.4714 224.365 90.8958 224.531 91.4844 224.531C91.7969 224.531 92.0729 224.484 92.3125 224.391C92.5573 224.292 92.7604 224.151 92.9219 223.969C93.0833 223.786 93.2057 223.568 93.2891 223.312C93.3724 223.052 93.4141 222.76 93.4141 222.438V217.461H95.3594V226H93.4141V224.703H93.2812C93.151 225.005 92.9688 225.268 92.7344 225.492C92.5 225.711 92.2188 225.88 91.8906 226C91.5625 226.115 91.1927 226.172 90.7812 226.172ZM97.7344 226V217.461H99.6797V218.773H99.8125C99.9583 218.315 100.219 217.958 100.594 217.703C100.974 217.448 101.445 217.32 102.008 217.32C102.154 217.32 102.297 217.331 102.438 217.352C102.583 217.367 102.703 217.388 102.797 217.414V219.156C102.641 219.12 102.482 219.094 102.32 219.078C102.164 219.057 102 219.047 101.828 219.047C101.396 219.047 101.018 219.128 100.695 219.289C100.372 219.451 100.122 219.682 99.9453 219.984C99.7682 220.281 99.6797 220.633 99.6797 221.039V226H97.7344ZM111.867 226.172C111.143 226.172 110.518 226.07 109.992 225.867C109.471 225.659 109.06 225.372 108.758 225.008C108.456 224.638 108.276 224.211 108.219 223.727V223.711H110.148L110.156 223.727C110.26 224.023 110.456 224.266 110.742 224.453C111.029 224.641 111.414 224.734 111.898 224.734C112.221 224.734 112.505 224.69 112.75 224.602C112.995 224.508 113.188 224.38 113.328 224.219C113.469 224.057 113.539 223.87 113.539 223.656V223.641C113.539 223.391 113.438 223.182 113.234 223.016C113.031 222.844 112.695 222.706 112.227 222.602L110.844 222.289C110.302 222.169 109.854 222.003 109.5 221.789C109.146 221.576 108.88 221.312 108.703 221C108.531 220.688 108.445 220.323 108.445 219.906V219.898C108.445 219.383 108.589 218.93 108.875 218.539C109.167 218.148 109.57 217.844 110.086 217.625C110.602 217.406 111.195 217.297 111.867 217.297C112.56 217.297 113.156 217.401 113.656 217.609C114.156 217.818 114.547 218.104 114.828 218.469C115.109 218.833 115.271 219.247 115.312 219.711V219.727H113.484L113.477 219.703C113.404 219.432 113.229 219.203 112.953 219.016C112.682 218.823 112.318 218.727 111.859 218.727C111.573 218.727 111.315 218.771 111.086 218.859C110.862 218.948 110.685 219.073 110.555 219.234C110.43 219.391 110.367 219.576 110.367 219.789V219.797C110.367 219.964 110.409 220.109 110.492 220.234C110.581 220.359 110.719 220.469 110.906 220.562C111.094 220.656 111.341 220.74 111.648 220.812L113.031 221.117C113.87 221.305 114.49 221.583 114.891 221.953C115.292 222.323 115.492 222.82 115.492 223.445V223.461C115.492 224.003 115.336 224.477 115.023 224.883C114.711 225.289 114.281 225.607 113.734 225.836C113.188 226.06 112.565 226.172 111.867 226.172ZM120.766 226.039C119.786 226.039 119.081 225.859 118.648 225.5C118.216 225.141 118 224.552 118 223.734V218.969H116.672V217.461H118V215.367H119.977V217.461H121.773V218.969H119.977V223.273C119.977 223.695 120.065 224.005 120.242 224.203C120.424 224.396 120.716 224.492 121.117 224.492C121.258 224.492 121.372 224.49 121.461 224.484C121.555 224.474 121.659 224.464 121.773 224.453V225.953C121.638 225.979 121.482 226 121.305 226.016C121.133 226.031 120.953 226.039 120.766 226.039ZM126.547 226.172C125.911 226.172 125.378 226.049 124.945 225.805C124.513 225.555 124.188 225.193 123.969 224.719C123.75 224.24 123.641 223.661 123.641 222.984V217.461H125.586V222.539C125.586 223.201 125.716 223.698 125.977 224.031C126.237 224.365 126.661 224.531 127.25 224.531C127.562 224.531 127.839 224.484 128.078 224.391C128.323 224.292 128.526 224.151 128.688 223.969C128.849 223.786 128.971 223.568 129.055 223.312C129.138 223.052 129.18 222.76 129.18 222.438V217.461H131.125V226H129.18V224.703H129.047C128.917 225.005 128.734 225.268 128.5 225.492C128.266 225.711 127.984 225.88 127.656 226C127.328 226.115 126.958 226.172 126.547 226.172ZM136.578 226.141C135.87 226.141 135.253 225.964 134.727 225.609C134.201 225.25 133.794 224.74 133.508 224.078C133.221 223.417 133.078 222.638 133.078 221.742V221.727C133.078 220.82 133.219 220.039 133.5 219.383C133.786 218.721 134.19 218.214 134.711 217.859C135.237 217.5 135.859 217.32 136.578 217.32C136.969 217.32 137.333 217.383 137.672 217.508C138.01 217.628 138.307 217.799 138.562 218.023C138.823 218.247 139.026 218.513 139.172 218.82H139.312V214.156H141.25V226H139.312V224.664H139.172C139.016 224.971 138.81 225.237 138.555 225.461C138.305 225.68 138.013 225.849 137.68 225.969C137.346 226.083 136.979 226.141 136.578 226.141ZM137.188 224.5C137.63 224.5 138.01 224.391 138.328 224.172C138.651 223.948 138.898 223.63 139.07 223.219C139.247 222.802 139.336 222.31 139.336 221.742V221.727C139.336 221.154 139.247 220.661 139.07 220.25C138.898 219.839 138.651 219.521 138.328 219.297C138.01 219.073 137.63 218.961 137.188 218.961C136.75 218.961 136.37 219.073 136.047 219.297C135.729 219.516 135.484 219.833 135.312 220.25C135.141 220.661 135.055 221.154 135.055 221.727V221.742C135.055 222.315 135.141 222.807 135.312 223.219C135.484 223.63 135.729 223.948 136.047 224.172C136.365 224.391 136.745 224.5 137.188 224.5ZM144.617 229C144.497 229 144.372 228.997 144.242 228.992C144.117 228.987 143.995 228.979 143.875 228.969V227.477C143.953 227.487 144.044 227.492 144.148 227.492C144.253 227.497 144.354 227.5 144.453 227.5C144.854 227.5 145.174 227.411 145.414 227.234C145.659 227.062 145.833 226.784 145.938 226.398L146.039 226.008L142.984 217.461H145.109L147.359 225.023L146.828 224.133H147.5L146.984 225.023L149.234 217.461H151.281L148.219 226.188C147.974 226.896 147.693 227.456 147.375 227.867C147.057 228.279 146.674 228.57 146.227 228.742C145.784 228.914 145.247 229 144.617 229ZM160.43 226.172C159.706 226.172 159.081 226.07 158.555 225.867C158.034 225.659 157.622 225.372 157.32 225.008C157.018 224.638 156.839 224.211 156.781 223.727V223.711H158.711L158.719 223.727C158.823 224.023 159.018 224.266 159.305 224.453C159.591 224.641 159.977 224.734 160.461 224.734C160.784 224.734 161.068 224.69 161.312 224.602C161.557 224.508 161.75 224.38 161.891 224.219C162.031 224.057 162.102 223.87 162.102 223.656V223.641C162.102 223.391 162 223.182 161.797 223.016C161.594 222.844 161.258 222.706 160.789 222.602L159.406 222.289C158.865 222.169 158.417 222.003 158.062 221.789C157.708 221.576 157.443 221.312 157.266 221C157.094 220.688 157.008 220.323 157.008 219.906V219.898C157.008 219.383 157.151 218.93 157.438 218.539C157.729 218.148 158.133 217.844 158.648 217.625C159.164 217.406 159.758 217.297 160.43 217.297C161.122 217.297 161.719 217.401 162.219 217.609C162.719 217.818 163.109 218.104 163.391 218.469C163.672 218.833 163.833 219.247 163.875 219.711V219.727H162.047L162.039 219.703C161.966 219.432 161.792 219.203 161.516 219.016C161.245 218.823 160.88 218.727 160.422 218.727C160.135 218.727 159.878 218.771 159.648 218.859C159.424 218.948 159.247 219.073 159.117 219.234C158.992 219.391 158.93 219.576 158.93 219.789V219.797C158.93 219.964 158.971 220.109 159.055 220.234C159.143 220.359 159.281 220.469 159.469 220.562C159.656 220.656 159.904 220.74 160.211 220.812L161.594 221.117C162.432 221.305 163.052 221.583 163.453 221.953C163.854 222.323 164.055 222.82 164.055 223.445V223.461C164.055 224.003 163.898 224.477 163.586 224.883C163.273 225.289 162.844 225.607 162.297 225.836C161.75 226.06 161.128 226.172 160.43 226.172ZM166.016 228.836V217.461H167.961V218.797H168.094C168.25 218.49 168.453 218.227 168.703 218.008C168.958 217.789 169.253 217.62 169.586 217.5C169.919 217.38 170.286 217.32 170.688 217.32C171.401 217.32 172.018 217.5 172.539 217.859C173.065 218.219 173.471 218.729 173.758 219.391C174.049 220.047 174.195 220.826 174.195 221.727V221.742C174.195 222.648 174.052 223.43 173.766 224.086C173.479 224.742 173.073 225.25 172.547 225.609C172.026 225.964 171.406 226.141 170.688 226.141C170.297 226.141 169.932 226.081 169.594 225.961C169.255 225.836 168.958 225.661 168.703 225.438C168.448 225.214 168.245 224.948 168.094 224.641H167.961V228.836H166.016ZM170.078 224.5C170.521 224.5 170.901 224.391 171.219 224.172C171.536 223.948 171.781 223.63 171.953 223.219C172.125 222.802 172.211 222.31 172.211 221.742V221.727C172.211 221.148 172.125 220.654 171.953 220.242C171.781 219.831 171.536 219.516 171.219 219.297C170.901 219.073 170.521 218.961 170.078 218.961C169.635 218.961 169.253 219.073 168.93 219.297C168.612 219.516 168.365 219.831 168.188 220.242C168.016 220.654 167.93 221.146 167.93 221.719V221.734C167.93 222.307 168.016 222.802 168.188 223.219C168.365 223.63 168.615 223.948 168.938 224.172C169.26 224.391 169.641 224.5 170.078 224.5ZM178.484 226.141C177.948 226.141 177.466 226.036 177.039 225.828C176.617 225.62 176.284 225.326 176.039 224.945C175.799 224.56 175.68 224.107 175.68 223.586V223.57C175.68 223.065 175.805 222.63 176.055 222.266C176.305 221.896 176.672 221.607 177.156 221.398C177.641 221.19 178.229 221.068 178.922 221.031L182.078 220.836V222.117L179.195 222.305C178.648 222.336 178.245 222.451 177.984 222.648C177.724 222.846 177.594 223.122 177.594 223.477V223.492C177.594 223.857 177.732 224.141 178.008 224.344C178.289 224.547 178.646 224.648 179.078 224.648C179.469 224.648 179.818 224.57 180.125 224.414C180.432 224.258 180.674 224.047 180.852 223.781C181.029 223.51 181.117 223.206 181.117 222.867V220.164C181.117 219.737 180.982 219.411 180.711 219.188C180.44 218.958 180.039 218.844 179.508 218.844C179.065 218.844 178.703 218.922 178.422 219.078C178.141 219.229 177.951 219.445 177.852 219.727L177.844 219.758H176.008L176.016 219.688C176.078 219.208 176.266 218.789 176.578 218.43C176.891 218.07 177.305 217.792 177.82 217.594C178.336 217.396 178.93 217.297 179.602 217.297C180.341 217.297 180.966 217.411 181.477 217.641C181.987 217.865 182.375 218.193 182.641 218.625C182.906 219.052 183.039 219.565 183.039 220.164V226H181.117V224.828H180.984C180.828 225.099 180.625 225.333 180.375 225.531C180.13 225.729 179.849 225.88 179.531 225.984C179.214 226.089 178.865 226.141 178.484 226.141ZM189.039 226.172C188.18 226.172 187.445 225.995 186.836 225.641C186.227 225.286 185.76 224.776 185.438 224.109C185.115 223.443 184.953 222.646 184.953 221.719V221.703C184.953 220.781 185.115 219.992 185.438 219.336C185.76 218.68 186.227 218.177 186.836 217.828C187.445 217.474 188.177 217.297 189.031 217.297C189.766 217.297 190.396 217.424 190.922 217.68C191.453 217.93 191.872 218.279 192.18 218.727C192.492 219.169 192.685 219.688 192.758 220.281V220.312H190.922L190.914 220.289C190.826 219.872 190.622 219.531 190.305 219.266C189.992 219 189.57 218.867 189.039 218.867C188.596 218.867 188.216 218.979 187.898 219.203C187.586 219.427 187.346 219.75 187.18 220.172C187.013 220.594 186.93 221.104 186.93 221.703V221.719C186.93 222.323 187.013 222.841 187.18 223.273C187.352 223.701 187.594 224.029 187.906 224.258C188.219 224.482 188.596 224.594 189.039 224.594C189.544 224.594 189.951 224.479 190.258 224.25C190.57 224.021 190.786 223.682 190.906 223.234L190.922 223.203L192.75 223.195L192.742 223.266C192.648 223.844 192.445 224.352 192.133 224.789C191.826 225.227 191.414 225.568 190.898 225.812C190.383 226.052 189.763 226.172 189.039 226.172ZM198.266 226.172C197.417 226.172 196.688 225.992 196.078 225.633C195.474 225.273 195.008 224.763 194.68 224.102C194.352 223.44 194.188 222.656 194.188 221.75V221.742C194.188 220.846 194.349 220.065 194.672 219.398C195 218.732 195.464 218.216 196.062 217.852C196.661 217.482 197.365 217.297 198.172 217.297C198.984 217.297 199.682 217.477 200.266 217.836C200.854 218.19 201.307 218.688 201.625 219.328C201.943 219.969 202.102 220.719 202.102 221.578V222.219H195.164V220.914H201.148L200.227 222.133V221.359C200.227 220.792 200.141 220.32 199.969 219.945C199.797 219.57 199.557 219.289 199.25 219.102C198.948 218.914 198.596 218.82 198.195 218.82C197.794 218.82 197.438 218.919 197.125 219.117C196.818 219.31 196.573 219.596 196.391 219.977C196.214 220.352 196.125 220.812 196.125 221.359V222.141C196.125 222.667 196.214 223.117 196.391 223.492C196.568 223.862 196.818 224.148 197.141 224.352C197.469 224.549 197.857 224.648 198.305 224.648C198.654 224.648 198.953 224.599 199.203 224.5C199.458 224.396 199.664 224.273 199.82 224.133C199.977 223.987 200.086 223.849 200.148 223.719L200.172 223.664H202.016L202 223.734C201.932 224.01 201.807 224.292 201.625 224.578C201.448 224.859 201.206 225.122 200.898 225.367C200.596 225.607 200.227 225.802 199.789 225.953C199.352 226.099 198.844 226.172 198.266 226.172ZM203.789 228.977L204.469 224.281H206.469L205.117 228.977H203.789ZM69.25 246.141C68.7135 246.141 68.2318 246.036 67.8047 245.828C67.3828 245.62 67.0495 245.326 66.8047 244.945C66.5651 244.56 66.4453 244.107 66.4453 243.586V243.57C66.4453 243.065 66.5703 242.63 66.8203 242.266C67.0703 241.896 67.4375 241.607 67.9219 241.398C68.4062 241.19 68.9948 241.068 69.6875 241.031L72.8438 240.836V242.117L69.9609 242.305C69.4141 242.336 69.0104 242.451 68.75 242.648C68.4896 242.846 68.3594 243.122 68.3594 243.477V243.492C68.3594 243.857 68.4974 244.141 68.7734 244.344C69.0547 244.547 69.4115 244.648 69.8438 244.648C70.2344 244.648 70.5833 244.57 70.8906 244.414C71.1979 244.258 71.4401 244.047 71.6172 243.781C71.7943 243.51 71.8828 243.206 71.8828 242.867V240.164C71.8828 239.737 71.7474 239.411 71.4766 239.188C71.2057 238.958 70.8047 238.844 70.2734 238.844C69.8307 238.844 69.4688 238.922 69.1875 239.078C68.9062 239.229 68.7161 239.445 68.6172 239.727L68.6094 239.758H66.7734L66.7812 239.688C66.8438 239.208 67.0312 238.789 67.3438 238.43C67.6562 238.07 68.0703 237.792 68.5859 237.594C69.1016 237.396 69.6953 237.297 70.3672 237.297C71.1068 237.297 71.7318 237.411 72.2422 237.641C72.7526 237.865 73.1406 238.193 73.4062 238.625C73.6719 239.052 73.8047 239.565 73.8047 240.164V246H71.8828V244.828H71.75C71.5938 245.099 71.3906 245.333 71.1406 245.531C70.8958 245.729 70.6146 245.88 70.2969 245.984C69.9792 246.089 69.6302 246.141 69.25 246.141ZM76.1406 246V237.461H78.0859V238.773H78.2188C78.4219 238.31 78.7292 237.948 79.1406 237.688C79.5521 237.427 80.0651 237.297 80.6797 237.297C81.6328 237.297 82.362 237.573 82.8672 238.125C83.3724 238.677 83.625 239.461 83.625 240.477V246H81.6797V240.93C81.6797 240.263 81.5391 239.763 81.2578 239.43C80.9818 239.096 80.5495 238.93 79.9609 238.93C79.5755 238.93 79.2422 239.016 78.9609 239.188C78.6797 239.359 78.4635 239.602 78.3125 239.914C78.1615 240.227 78.0859 240.596 78.0859 241.023V246H76.1406ZM86.5703 249C86.4505 249 86.3255 248.997 86.1953 248.992C86.0703 248.987 85.9479 248.979 85.8281 248.969V247.477C85.9062 247.487 85.9974 247.492 86.1016 247.492C86.2057 247.497 86.3073 247.5 86.4062 247.5C86.8073 247.5 87.1276 247.411 87.3672 247.234C87.612 247.062 87.7865 246.784 87.8906 246.398L87.9922 246.008L84.9375 237.461H87.0625L89.3125 245.023L88.7812 244.133H89.4531L88.9375 245.023L91.1875 237.461H93.2344L90.1719 246.188C89.9271 246.896 89.6458 247.456 89.3281 247.867C89.0104 248.279 88.6276 248.57 88.1797 248.742C87.737 248.914 87.2005 249 86.5703 249ZM96.5234 246L94.2031 237.461H96.1562L97.5703 243.883H97.7109L99.3516 237.461H101.203L102.852 243.883H102.992L104.406 237.461H106.336L104.016 246H101.984L100.32 239.812H100.188L98.5312 246H96.5234ZM108.094 246V234.156H110.039V238.773H110.172C110.375 238.31 110.682 237.948 111.094 237.688C111.505 237.427 112.018 237.297 112.633 237.297C113.268 237.297 113.805 237.422 114.242 237.672C114.68 237.917 115.01 238.276 115.234 238.75C115.464 239.224 115.578 239.799 115.578 240.477V246H113.633V240.93C113.633 240.263 113.492 239.763 113.211 239.43C112.935 239.096 112.503 238.93 111.914 238.93C111.529 238.93 111.195 239.016 110.914 239.188C110.633 239.359 110.417 239.602 110.266 239.914C110.115 240.227 110.039 240.596 110.039 241.023V246H108.094ZM121.531 246.172C120.682 246.172 119.953 245.992 119.344 245.633C118.74 245.273 118.273 244.763 117.945 244.102C117.617 243.44 117.453 242.656 117.453 241.75V241.742C117.453 240.846 117.615 240.065 117.938 239.398C118.266 238.732 118.729 238.216 119.328 237.852C119.927 237.482 120.63 237.297 121.438 237.297C122.25 237.297 122.948 237.477 123.531 237.836C124.12 238.19 124.573 238.688 124.891 239.328C125.208 239.969 125.367 240.719 125.367 241.578V242.219H118.43V240.914H124.414L123.492 242.133V241.359C123.492 240.792 123.406 240.32 123.234 239.945C123.062 239.57 122.823 239.289 122.516 239.102C122.214 238.914 121.862 238.82 121.461 238.82C121.06 238.82 120.703 238.919 120.391 239.117C120.083 239.31 119.839 239.596 119.656 239.977C119.479 240.352 119.391 240.812 119.391 241.359V242.141C119.391 242.667 119.479 243.117 119.656 243.492C119.833 243.862 120.083 244.148 120.406 244.352C120.734 244.549 121.122 244.648 121.57 244.648C121.919 244.648 122.219 244.599 122.469 244.5C122.724 244.396 122.93 244.273 123.086 244.133C123.242 243.987 123.352 243.849 123.414 243.719L123.438 243.664H125.281L125.266 243.734C125.198 244.01 125.073 244.292 124.891 244.578C124.714 244.859 124.471 245.122 124.164 245.367C123.862 245.607 123.492 245.802 123.055 245.953C122.617 246.099 122.109 246.172 121.531 246.172ZM127.312 246V237.461H129.258V238.773H129.391C129.536 238.315 129.797 237.958 130.172 237.703C130.552 237.448 131.023 237.32 131.586 237.32C131.732 237.32 131.875 237.331 132.016 237.352C132.161 237.367 132.281 237.388 132.375 237.414V239.156C132.219 239.12 132.06 239.094 131.898 239.078C131.742 239.057 131.578 239.047 131.406 239.047C130.974 239.047 130.596 239.128 130.273 239.289C129.951 239.451 129.701 239.682 129.523 239.984C129.346 240.281 129.258 240.633 129.258 241.039V246H127.312ZM137.406 246.172C136.557 246.172 135.828 245.992 135.219 245.633C134.615 245.273 134.148 244.763 133.82 244.102C133.492 243.44 133.328 242.656 133.328 241.75V241.742C133.328 240.846 133.49 240.065 133.812 239.398C134.141 238.732 134.604 238.216 135.203 237.852C135.802 237.482 136.505 237.297 137.312 237.297C138.125 237.297 138.823 237.477 139.406 237.836C139.995 238.19 140.448 238.688 140.766 239.328C141.083 239.969 141.242 240.719 141.242 241.578V242.219H134.305V240.914H140.289L139.367 242.133V241.359C139.367 240.792 139.281 240.32 139.109 239.945C138.938 239.57 138.698 239.289 138.391 239.102C138.089 238.914 137.737 238.82 137.336 238.82C136.935 238.82 136.578 238.919 136.266 239.117C135.958 239.31 135.714 239.596 135.531 239.977C135.354 240.352 135.266 240.812 135.266 241.359V242.141C135.266 242.667 135.354 243.117 135.531 243.492C135.708 243.862 135.958 244.148 136.281 244.352C136.609 244.549 136.997 244.648 137.445 244.648C137.794 244.648 138.094 244.599 138.344 244.5C138.599 244.396 138.805 244.273 138.961 244.133C139.117 243.987 139.227 243.849 139.289 243.719L139.312 243.664H141.156L141.141 243.734C141.073 244.01 140.948 244.292 140.766 244.578C140.589 244.859 140.346 245.122 140.039 245.367C139.737 245.607 139.367 245.802 138.93 245.953C138.492 246.099 137.984 246.172 137.406 246.172ZM144.633 246.148C144.279 246.148 143.982 246.031 143.742 245.797C143.508 245.557 143.391 245.266 143.391 244.922C143.391 244.573 143.508 244.281 143.742 244.047C143.982 243.807 144.279 243.688 144.633 243.688C144.992 243.688 145.289 243.807 145.523 244.047C145.758 244.281 145.875 244.573 145.875 244.922C145.875 245.266 145.758 245.557 145.523 245.797C145.289 246.031 144.992 246.148 144.633 246.148Z" fill="white"/>
</svg>
