<svg width="169" height="194" viewBox="0 0 169 194" fill="none" xmlns="http://www.w3.org/2000/svg">
<path d="M154.5 27.2812V94.1624C154.5 99.6187 148.97 104.625 142.18 105.3L140.01 105.525C128.53 106.762 112.36 110.587 99.34 114.975C94.79 116.494 89.75 113.737 89.75 109.744V31.5C89.75 29.4187 91.22 27.5062 93.53 26.4937C106.34 20.925 125.73 15.975 138.89 15.075H139.31C147.71 15.075 154.5 20.5312 154.5 27.2812Z" fill="white"/>
<path d="M75.4697 26.4937C62.6597 20.925 43.2697 15.975 30.1097 15.075H29.6197C21.2197 15.075 14.4297 20.5312 14.4297 27.2812V94.1624C14.4297 99.6187 19.9597 104.625 26.7497 105.3L28.9197 105.525C40.3997 106.762 56.5697 110.587 69.5897 114.975C74.1397 116.494 79.1797 113.737 79.1797 109.744V31.5C79.1797 29.3625 77.7797 27.5062 75.4697 26.4937ZM35.4997 43.5374H51.2497C54.1197 43.5374 56.4997 45.4499 56.4997 47.7562C56.4997 50.1187 54.1197 51.9749 51.2497 51.9749H35.4997C32.6297 51.9749 30.2497 50.1187 30.2497 47.7562C30.2497 45.4499 32.6297 43.5374 35.4997 43.5374ZM56.4997 68.8499H35.4997C32.6297 68.8499 30.2497 66.9937 30.2497 64.6312C30.2497 62.3249 32.6297 60.4124 35.4997 60.4124H56.4997C59.3697 60.4124 61.7497 62.3249 61.7497 64.6312C61.7497 66.9937 59.3697 68.8499 56.4997 68.8499Z" fill="white"/>
<path d="M20.5176 185.415C18.625 185.415 16.9704 185.138 15.5537 184.585C14.1481 184.021 13.0413 183.218 12.2334 182.178C11.4255 181.126 10.9717 179.865 10.8721 178.393L10.8555 178.127H15.5869L15.6201 178.31C15.7308 178.929 16.0075 179.466 16.4502 179.92C16.904 180.363 17.4906 180.711 18.21 180.966C18.9294 181.209 19.7428 181.331 20.6504 181.331C21.5801 181.331 22.377 181.209 23.041 180.966C23.7161 180.711 24.2363 180.357 24.6016 179.903C24.9779 179.438 25.166 178.902 25.166 178.293V178.276C25.166 177.468 24.8451 176.838 24.2031 176.384C23.5723 175.919 22.5098 175.532 21.0156 175.222L18.4922 174.724C16.1348 174.248 14.3584 173.445 13.1631 172.316C11.9678 171.188 11.3701 169.721 11.3701 167.917V167.9C11.3701 166.439 11.763 165.167 12.5488 164.082C13.3346 162.986 14.4137 162.14 15.7861 161.542C17.1585 160.933 18.7301 160.629 20.501 160.629C22.3493 160.629 23.943 160.917 25.2822 161.492C26.6325 162.068 27.6839 162.881 28.4365 163.933C29.1891 164.984 29.6042 166.207 29.6816 167.602L29.6982 167.917H24.9668L24.9502 167.718C24.8617 167.087 24.6237 166.55 24.2363 166.107C23.849 165.654 23.3343 165.305 22.6924 165.062C22.0615 164.818 21.3311 164.696 20.501 164.696C19.6488 164.696 18.9128 164.824 18.293 165.078C17.6732 165.322 17.1973 165.659 16.8652 166.091C16.5443 166.522 16.3838 167.026 16.3838 167.602V167.618C16.3838 168.371 16.7048 168.979 17.3467 169.444C17.9886 169.909 18.9958 170.28 20.3682 170.557L22.9082 171.071C24.5794 171.403 25.9518 171.863 27.0254 172.449C28.099 173.036 28.8903 173.777 29.3994 174.674C29.9196 175.559 30.1797 176.627 30.1797 177.878V177.895C30.1797 179.433 29.7923 180.767 29.0176 181.896C28.2539 183.013 27.1471 183.882 25.6973 184.502C24.2585 185.111 22.5319 185.415 20.5176 185.415ZM39.9082 185.365C37.9382 185.365 36.4772 184.95 35.5254 184.12C34.5736 183.29 34.0977 181.923 34.0977 180.02V170.855H31.624V167.203H34.0977V162.854H38.9951V167.203H42.249V170.855H38.9951V179.488C38.9951 180.318 39.1777 180.899 39.543 181.231C39.9193 181.552 40.4727 181.713 41.2031 181.713C41.4245 181.713 41.6182 181.707 41.7842 181.696C41.9502 181.674 42.1051 181.652 42.249 181.63V185.183C41.9834 185.227 41.6514 185.266 41.2529 185.299C40.8656 185.343 40.4173 185.365 39.9082 185.365ZM50.9814 185.365C49.6755 185.365 48.5632 185.1 47.6445 184.568C46.737 184.026 46.0397 183.257 45.5527 182.261C45.0768 181.265 44.8389 180.075 44.8389 178.691V167.203H49.6865V177.679C49.6865 178.841 49.9577 179.743 50.5 180.385C51.0534 181.027 51.8724 181.348 52.957 181.348C53.4993 181.348 53.9863 181.254 54.418 181.065C54.8607 180.877 55.237 180.612 55.5469 180.269C55.8568 179.914 56.0947 179.499 56.2607 179.023C56.4268 178.536 56.5098 178.005 56.5098 177.43V167.203H61.3574V185H56.5098V182.062H56.4102C56.1003 182.737 55.6908 183.323 55.1816 183.821C54.6836 184.319 54.0804 184.701 53.3721 184.967C52.6748 185.232 51.8779 185.365 50.9814 185.365ZM71.1025 185.365C69.6084 185.365 68.319 184.994 67.2344 184.253C66.1497 183.511 65.3141 182.449 64.7275 181.065C64.152 179.682 63.8643 178.027 63.8643 176.102V176.085C63.8643 174.148 64.1576 172.493 64.7441 171.121C65.3307 169.738 66.1608 168.681 67.2344 167.95C68.319 167.209 69.6084 166.838 71.1025 166.838C71.9437 166.838 72.7184 166.976 73.4268 167.253C74.1351 167.53 74.7549 167.928 75.2861 168.448C75.8285 168.957 76.2601 169.572 76.5811 170.291H76.6807V161.044H81.5283V185H76.6807V181.962H76.5811C76.2712 182.67 75.8506 183.279 75.3193 183.788C74.7881 184.286 74.1683 184.674 73.46 184.95C72.7516 185.227 71.9658 185.365 71.1025 185.365ZM72.7295 181.348C73.5153 181.348 74.207 181.137 74.8047 180.717C75.4023 180.285 75.8672 179.676 76.1992 178.891C76.5312 178.105 76.6973 177.175 76.6973 176.102V176.085C76.6973 175.011 76.5257 174.087 76.1826 173.312C75.8506 172.527 75.3857 171.924 74.7881 171.503C74.2015 171.071 73.5153 170.855 72.7295 170.855C71.9215 170.855 71.2243 171.066 70.6377 171.486C70.0511 171.907 69.5973 172.51 69.2764 173.296C68.9554 174.071 68.7949 175 68.7949 176.085V176.102C68.7949 177.175 68.9499 178.105 69.2598 178.891C69.5807 179.676 70.0345 180.285 70.6211 180.717C71.2188 181.137 71.9215 181.348 72.7295 181.348ZM87.5547 190.86C87.0788 190.86 86.6195 190.838 86.1768 190.794C85.734 190.75 85.3688 190.7 85.0811 190.645V187.042C85.2581 187.075 85.485 187.108 85.7617 187.142C86.0384 187.186 86.3538 187.208 86.708 187.208C87.4385 187.208 88.014 187.086 88.4346 186.843C88.8551 186.599 89.1706 186.179 89.3809 185.581L89.5967 185L83.3047 167.203H88.6338L92.6514 182.078L92.0039 181.115H92.917L92.2695 182.078L96.2871 167.203H101.4L95.291 185.315C94.8262 186.71 94.2396 187.811 93.5312 188.619C92.834 189.427 91.9928 190.003 91.0078 190.346C90.0228 190.689 88.8717 190.86 87.5547 190.86ZM103.509 185V161.044H113.403C115.196 161.044 116.729 161.348 118.002 161.957C119.286 162.566 120.265 163.446 120.94 164.597C121.627 165.737 121.97 167.109 121.97 168.714V168.747C121.97 170.319 121.577 171.719 120.791 172.947C120.016 174.176 118.965 175.05 117.637 175.57L122.684 185H117.006L112.54 176.317C112.507 176.317 112.468 176.317 112.424 176.317C112.38 176.317 112.335 176.317 112.291 176.317H108.522V185H103.509ZM108.522 172.516H112.855C114.106 172.516 115.08 172.184 115.777 171.52C116.486 170.844 116.84 169.92 116.84 168.747V168.714C116.84 167.563 116.475 166.65 115.744 165.975C115.014 165.299 114.029 164.962 112.789 164.962H108.522V172.516ZM132.811 185.365C130.995 185.365 129.435 184.994 128.129 184.253C126.823 183.5 125.816 182.432 125.107 181.049C124.41 179.665 124.062 178.027 124.062 176.135V176.118C124.062 174.226 124.41 172.588 125.107 171.204C125.816 169.81 126.806 168.736 128.079 167.983C129.363 167.22 130.874 166.838 132.611 166.838C134.349 166.838 135.849 167.209 137.11 167.95C138.383 168.681 139.363 169.715 140.049 171.055C140.746 172.394 141.095 173.96 141.095 175.753V177.247H126.436V174.192H138.804L136.496 177.048V175.188C136.496 174.148 136.336 173.279 136.015 172.582C135.694 171.874 135.245 171.342 134.67 170.988C134.105 170.634 133.447 170.457 132.694 170.457C131.942 170.457 131.272 170.64 130.686 171.005C130.11 171.37 129.656 171.907 129.324 172.615C129.003 173.312 128.843 174.17 128.843 175.188V177.064C128.843 178.049 129.003 178.891 129.324 179.588C129.656 180.285 130.127 180.822 130.735 181.198C131.344 181.563 132.069 181.746 132.91 181.746C133.574 181.746 134.15 181.641 134.637 181.431C135.124 181.22 135.522 180.955 135.832 180.634C136.142 180.313 136.352 179.986 136.463 179.654L136.496 179.555H140.945L140.896 179.737C140.763 180.39 140.503 181.049 140.115 181.713C139.728 182.377 139.202 182.986 138.538 183.539C137.885 184.092 137.083 184.535 136.131 184.867C135.19 185.199 134.083 185.365 132.811 185.365ZM143.27 185V182.244L152.218 170.938V170.855H143.402V167.203H157.763V170.274L149.346 181.248V181.348H157.962V185H143.27Z" fill="white"/>
</svg>
