<svg width="24" height="24" viewBox="0 0 24 24" fill="none" xmlns="http://www.w3.org/2000/svg">
<mask id="path-1-inside-1_3209_2419" fill="white">
<path d="M21.2 20.6637V3.77054H16.8V0L3.6 2.28847V20.6637H0V22.2726H4.345L16.8 24V5.37942H19.6V22.2726H24V20.6637H21.2ZM15.2 22.154L5.2 20.7671V3.64374L15.2 1.91028V22.154Z"/>
</mask>
<path d="M21.2 20.6637V3.77054H16.8V0L3.6 2.28847V20.6637H0V22.2726H4.345L16.8 24V5.37942H19.6V22.2726H24V20.6637H21.2ZM15.2 22.154L5.2 20.7671V3.64374L15.2 1.91028V22.154Z" fill="#9CA3AF"/>
<path d="M21.2 20.6637H19.2V22.6637H21.2V20.6637ZM21.2 3.77054H23.2V1.77054H21.2V3.77054ZM16.8 3.77054H14.8V5.77054H16.8V3.77054ZM16.8 0H18.8V-2.37657L16.4584 -1.9706L16.8 0ZM3.6 2.28847L3.25836 0.317866L1.6 0.605374V2.28847H3.6ZM3.6 20.6637V22.6637H5.6V20.6637H3.6ZM0 20.6637V18.6637H-2V20.6637H0ZM0 22.2726H-2V24.2726H0V22.2726ZM4.345 22.2726L4.61976 20.2915L4.48303 20.2726H4.345V22.2726ZM16.8 24L16.5252 25.981L18.8 26.2965V24H16.8ZM16.8 5.37942V3.37942H14.8V5.37942H16.8ZM19.6 5.37942H21.6V3.37942H19.6V5.37942ZM19.6 22.2726H17.6V24.2726H19.6V22.2726ZM24 22.2726V24.2726H26V22.2726H24ZM24 20.6637H26V18.6637H24V20.6637ZM15.2 22.154L14.9252 24.1351L17.2 24.4506V22.154H15.2ZM5.2 20.7671H3.2V22.5088L4.92524 22.7481L5.2 20.7671ZM5.2 3.64374L4.8584 1.67313L3.2 1.96061V3.64374H5.2ZM15.2 1.91028H17.2V-0.466234L14.8584 -0.0603275L15.2 1.91028ZM21.2 20.6637H23.2V3.77054H21.2H19.2V20.6637H21.2ZM21.2 3.77054V1.77054H16.8V3.77054V5.77054H21.2V3.77054ZM16.8 3.77054H18.8V0H16.8H14.8V3.77054H16.8ZM16.8 0L16.4584 -1.9706L3.25836 0.317866L3.6 2.28847L3.94164 4.25907L17.1416 1.9706L16.8 0ZM3.6 2.28847H1.6V20.6637H3.6H5.6V2.28847H3.6ZM3.6 20.6637V18.6637H0V20.6637V22.6637H3.6V20.6637ZM0 20.6637H-2V22.2726H0H2V20.6637H0ZM0 22.2726V24.2726H4.345V22.2726V20.2726H0V22.2726ZM4.345 22.2726L4.07024 24.2536L16.5252 25.981L16.8 24L17.0748 22.019L4.61976 20.2915L4.345 22.2726ZM16.8 24H18.8V5.37942H16.8H14.8V24H16.8ZM16.8 5.37942V7.37942H19.6V5.37942V3.37942H16.8V5.37942ZM19.6 5.37942H17.6V22.2726H19.6H21.6V5.37942H19.6ZM19.6 22.2726V24.2726H24V22.2726V20.2726H19.6V22.2726ZM24 22.2726H26V20.6637H24H22V22.2726H24ZM24 20.6637V18.6637H21.2V20.6637V22.6637H24V20.6637ZM15.2 22.154L15.4748 20.173L5.47476 18.786L5.2 20.7671L4.92524 22.7481L14.9252 24.1351L15.2 22.154ZM5.2 20.7671H7.2V3.64374H5.2H3.2V20.7671H5.2ZM5.2 3.64374L5.5416 5.61436L15.5416 3.8809L15.2 1.91028L14.8584 -0.0603275L4.8584 1.67313L5.2 3.64374ZM15.2 1.91028H13.2V22.154H15.2H17.2V1.91028H15.2Z" fill="#9CA3AF" mask="url(#path-1-inside-1_3209_2419)"/>
</svg>
